<svg width="0" height="0" fill="none" style="visibility: hidden; position: absolute;" aria-hidden="true">
    <symbol id="header-call-icon"  xmlns="http://www.w3.org/2000/svg">
        <path d="M13.2824 10.3572C13.2824 10.2947 13.2824 10.2322 13.2556 10.1697C13.1931 9.98216 12.7556 9.78573 12.577 9.69645C12.0681 9.41073 11.5502 9.13395 11.0502 8.8393C10.8181 8.69645 10.5324 8.42859 10.2556 8.42859C9.71094 8.42859 8.9163 10.0447 8.43415 10.0447C8.19308 10.0447 7.88058 9.82145 7.66629 9.69645C6.04129 8.79466 4.9163 7.66966 4.01451 6.04466C3.88951 5.83037 3.66629 5.51787 3.66629 5.2768C3.66629 4.79466 5.28237 4.00002 5.28237 3.45537C5.28237 3.17859 5.01451 2.89287 4.87165 2.66073C4.57701 2.16073 4.30022 1.64287 4.01451 1.13395C3.92522 0.955375 3.72879 0.517875 3.54129 0.455375C3.47879 0.428589 3.41629 0.428589 3.35379 0.428589C3.03237 0.428589 2.40737 0.571446 2.11272 0.705375C1.67522 0.892875 1.38951 1.39287 1.1663 1.79466C0.880581 2.32145 0.710938 2.85716 0.710938 3.45537C0.710938 4.28573 1.05022 5.03573 1.32701 5.79466C1.52344 6.3393 1.76451 6.86609 2.06808 7.35716C3.00558 8.87502 4.83594 10.7054 6.35379 11.6429C6.84487 11.9464 7.37165 12.1875 7.91629 12.3839C8.67522 12.6607 9.42522 13 10.2556 13C10.8538 13 11.3895 12.8304 11.9163 12.5447C12.3181 12.3214 12.8181 12.0357 13.0056 11.5982C13.1395 11.3036 13.2824 10.6786 13.2824 10.3572Z" />
    </symbol>
    <symbol id="info-item-burger-header__heading-text-icon"  fill="none" xmlns="http://www.w3.org/2000/svg">
        <line x1="-4.37114e-08" y1="11.5" x2="228" y2="11.5" stroke="#FFAC30"/>
        <path d="M232 1L248 11.5L232 22" stroke="#FFAC30"/>
    </symbol>
    <symbol id="details-info-item-burger-header__item-icon-email" width="25" height="22" viewBox="0 0 25 22" fill="none" xmlns="http://www.w3.org/2000/svg">
        <rect x="0.5" y="3.75586" width="24" height="17" rx="3.5" stroke="#FFAC30"/>
        <path d="M4.00022 7.75588L12.5 13.2559L21 7.67781" stroke="#FFAC30"/>
    </symbol>
    <symbol id="details-info-item-burger-header__item-icon-location" width="19" height="26" viewBox="0 0 19 26" fill="none" xmlns="http://www.w3.org/2000/svg">
        <path d="M17.783 9.64151C17.783 12.0247 16.7599 14.4531 15.0933 17.1023C13.741 19.2518 11.9975 21.4987 10.0969 23.948C9.78239 24.3533 9.46357 24.7642 9.14151 25.1811C8.81945 24.7642 8.50062 24.3533 8.1861 23.948C6.28553 21.4987 4.54201 19.2517 3.18972 17.1023C1.52308 14.4531 0.5 12.0247 0.5 9.64151C0.5 4.86894 4.36894 1 9.14151 1C13.9141 1 17.783 4.86894 17.783 9.64151Z" stroke="#FFAC30"/>
        <circle cx="9.1415" cy="9.64171" r="3.83019" stroke="#FFAC30"/>
    </symbol>
    <symbol id="details-info-item-burger-header__item-icon-time" width="21" height="21" viewBox="0 0 21 21" fill="none" xmlns="http://www.w3.org/2000/svg">
        <circle cx="10.5" cy="10.5" r="10" stroke="#FFAC30"/>
        <line x1="10.5" y1="11" x2="10.5" y2="3" stroke="#FFAC30"/>
        <line x1="10" y1="10.5" x2="15" y2="10.5" stroke="#FFAC30"/>
    </symbol>
    <symbol id="details-info-item-burger-header__item-icon-phone" width="21" height="21" viewBox="0 0 21 21" fill="none" xmlns="http://www.w3.org/2000/svg">
        <path d="M11.685 14.4698L11.685 14.4699C11.7615 14.5145 11.8303 14.557 11.8971 14.5981C12.0047 14.6644 12.107 14.7275 12.2276 14.7913C12.3983 14.8815 12.5073 14.9159 12.5647 14.9228C12.5732 14.9187 12.5871 14.9115 12.6065 14.899C12.6667 14.8604 12.7467 14.794 12.8476 14.6926C13.0411 14.4982 13.2524 14.237 13.4893 13.9442C13.5018 13.9287 13.5144 13.9131 13.5271 13.8975C13.7684 13.5994 14.0366 13.2705 14.3018 13.0172C14.4353 12.8896 14.5828 12.7668 14.7403 12.6737C14.8957 12.5819 15.0929 12.5 15.317 12.5C15.6737 12.5 15.9869 12.6679 16.204 12.8043C16.3173 12.8755 16.4262 12.9527 16.519 13.0184L16.5233 13.0215C16.6205 13.0904 16.6976 13.1449 16.7671 13.1879C17.26 13.4782 17.7596 13.7541 18.2661 14.0339C18.52 14.1741 18.7757 14.3153 19.0331 14.4597C19.0525 14.4694 19.0755 14.4806 19.1012 14.4931C19.2345 14.5582 19.4424 14.6598 19.6306 14.7727C19.7477 14.843 19.8753 14.928 19.9859 15.0251C20.0831 15.1105 20.2158 15.2464 20.284 15.4326C20.3582 15.6167 20.3575 15.7926 20.3572 15.8782C20.3572 15.8834 20.3571 15.8883 20.3571 15.8929C20.3571 16.1889 20.2942 16.5859 20.2127 16.9484C20.1314 17.3102 20.0195 17.6905 19.8994 17.9565C19.7114 18.3916 19.3821 18.724 19.0519 18.98C18.7197 19.2375 18.3498 19.4451 18.0509 19.6112L18.0464 19.6136L18.0464 19.6136C17.2014 20.0719 16.3162 20.3571 15.317 20.3571C14.1602 20.3571 13.0922 19.9523 12.1302 19.5875C11.9627 19.524 11.7985 19.4618 11.6376 19.4031C10.7954 19.0993 9.97298 18.7237 9.20154 18.2468C9.20148 18.2468 9.20143 18.2468 9.20138 18.2467L9.46429 17.8214L11.685 14.4698ZM11.685 14.4698L11.6757 14.4646M11.685 14.4698L11.6757 14.4646M11.6757 14.4646C9.31993 13.1573 7.69984 11.5372 6.39255 9.18149L6.39265 9.18143M11.6757 14.4646L6.39265 9.18143M6.39265 9.18143L6.38725 9.17217M6.39265 9.18143L6.38725 9.17217M6.38725 9.17217C6.3426 9.09564 6.30018 9.0268 6.25901 8.96001C6.19271 8.85242 6.12967 8.75013 6.06587 8.6295C5.97562 8.45889 5.9412 8.34989 5.93436 8.29249C5.9384 8.2839 5.94566 8.27009 5.95814 8.25063C5.9967 8.19046 6.06317 8.11047 6.16454 8.00957C6.35892 7.81609 6.62012 7.60476 6.91292 7.36787C6.92841 7.35534 6.94399 7.34273 6.95966 7.33005C7.25775 7.08878 7.58667 6.82055 7.83995 6.55538C7.96754 6.4218 8.09036 6.27439 8.18346 6.1168C8.27524 5.96147 8.35714 5.76429 8.35714 5.54018C8.35714 5.18345 8.18926 4.87028 8.05287 4.65314C7.9817 4.53983 7.9045 4.43094 7.83872 4.33816L7.83562 4.3338C7.76672 4.23661 7.7123 4.15952 7.66927 4.09001C7.37896 3.59717 7.10305 3.0976 6.8233 2.59106C6.68307 2.33716 6.54188 2.08151 6.39742 1.82408C6.38776 1.80461 6.37656 1.78168 6.36401 1.75598C6.2989 1.62268 6.19734 1.41473 6.08444 1.22657C6.01414 1.1094 5.92916 0.981882 5.832 0.871215C5.74667 0.774035 5.61072 0.641338 5.42448 0.573124C5.24039 0.498984 5.06455 0.499641 4.97893 0.499962C4.97371 0.499982 4.96882 0.5 4.96429 0.5C4.66828 0.5 4.27124 0.562911 3.90871 0.644437C3.54697 0.725787 3.16661 0.83764 2.90067 0.957779C2.46555 1.14569 2.13315 1.47507 1.87717 1.80525C1.61965 2.13741 1.41201 2.50738 1.24596 2.80629L1.24593 2.80627M6.38725 9.17217L1.24593 2.80627M1.24593 2.80627L1.24352 2.81073M1.24593 2.80627L1.24352 2.81073M1.24352 2.81073C0.785212 3.65573 0.5 4.54095 0.5 5.54018M1.24352 2.81073L0.5 5.54018M0.5 5.54018C0.5 6.69698 0.904876 7.76491 1.26962 8.72697M0.5 5.54018L1.26962 8.72697M1.26962 8.72697C1.3331 8.89441 1.39536 9.05864 1.45406 9.21957M1.26962 8.72697L1.45406 9.21957M1.45406 9.21957C1.75788 10.0618 2.13345 10.8842 2.61032 11.6556L1.45406 9.21957Z" stroke="#FFAC30"/>
    </symbol>
    <symbol id="nav-item-burger-header__link-arrow" fill="none" xmlns="http://www.w3.org/2000/svg">
        <line x1="-4.37114e-08" y1="11.5" x2="115" y2="11.5" stroke="#FFAC30"/>
        <path d="M119 1L135 11.5L119 22" stroke="#FFAC30"/>
    </symbol>
</svg>