<svg width="0" height="0" fill="none" style="visibility: hidden; position: absolute;" aria-hidden="true">
    <symbol id="header-call-icon"  xmlns="http://www.w3.org/2000/svg">
        <path d="M13.2824 10.3572C13.2824 10.2947 13.2824 10.2322 13.2556 10.1697C13.1931 9.98216 12.7556 9.78573 12.577 9.69645C12.0681 9.41073 11.5502 9.13395 11.0502 8.8393C10.8181 8.69645 10.5324 8.42859 10.2556 8.42859C9.71094 8.42859 8.9163 10.0447 8.43415 10.0447C8.19308 10.0447 7.88058 9.82145 7.66629 9.69645C6.04129 8.79466 4.9163 7.66966 4.01451 6.04466C3.88951 5.83037 3.66629 5.51787 3.66629 5.2768C3.66629 4.79466 5.28237 4.00002 5.28237 3.45537C5.28237 3.17859 5.01451 2.89287 4.87165 2.66073C4.57701 2.16073 4.30022 1.64287 4.01451 1.13395C3.92522 0.955375 3.72879 0.517875 3.54129 0.455375C3.47879 0.428589 3.41629 0.428589 3.35379 0.428589C3.03237 0.428589 2.40737 0.571446 2.11272 0.705375C1.67522 0.892875 1.38951 1.39287 1.1663 1.79466C0.880581 2.32145 0.710938 2.85716 0.710938 3.45537C0.710938 4.28573 1.05022 5.03573 1.32701 5.79466C1.52344 6.3393 1.76451 6.86609 2.06808 7.35716C3.00558 8.87502 4.83594 10.7054 6.35379 11.6429C6.84487 11.9464 7.37165 12.1875 7.91629 12.3839C8.67522 12.6607 9.42522 13 10.2556 13C10.8538 13 11.3895 12.8304 11.9163 12.5447C12.3181 12.3214 12.8181 12.0357 13.0056 11.5982C13.1395 11.3036 13.2824 10.6786 13.2824 10.3572Z" />
    </symbol>
    <symbol id="info-item-burger-header__heading-text-icon"  fill="none" xmlns="http://www.w3.org/2000/svg">
        <line x1="-4.37114e-08" y1="11.5" x2="228" y2="11.5" stroke="#FFAC30"/>
        <path d="M232 1L248 11.5L232 22" stroke="#FFAC30"/>
    </symbol>
    <symbol id="details-info-item-burger-header__item-icon-email" width="25" height="22" viewBox="0 0 25 22" fill="none" xmlns="http://www.w3.org/2000/svg">
        <rect x="0.5" y="3.75586" width="24" height="17" rx="3.5" stroke="#FFAC30"/>
        <path d="M4.00022 7.75588L12.5 13.2559L21 7.67781" stroke="#FFAC30"/>
    </symbol>
    <symbol id="details-info-item-burger-header__item-icon-location" width="19" height="26" viewBox="0 0 19 26" fill="none" xmlns="http://www.w3.org/2000/svg">
        <path d="M17.783 9.64151C17.783 12.0247 16.7599 14.4531 15.0933 17.1023C13.741 19.2518 11.9975 21.4987 10.0969 23.948C9.78239 24.3533 9.46357 24.7642 9.14151 25.1811C8.81945 24.7642 8.50062 24.3533 8.1861 23.948C6.28553 21.4987 4.54201 19.2517 3.18972 17.1023C1.52308 14.4531 0.5 12.0247 0.5 9.64151C0.5 4.86894 4.36894 1 9.14151 1C13.9141 1 17.783 4.86894 17.783 9.64151Z" stroke="#FFAC30"/>
        <circle cx="9.1415" cy="9.64171" r="3.83019" stroke="#FFAC30"/>
    </symbol>
    <symbol id="details-info-item-burger-header__item-icon-time" width="21" height="21" viewBox="0 0 21 21" fill="none" xmlns="http://www.w3.org/2000/svg">
        <circle cx="10.5" cy="10.5" r="10" stroke="#FFAC30"/>
        <line x1="10.5" y1="11" x2="10.5" y2="3" stroke="#FFAC30"/>
        <line x1="10" y1="10.5" x2="15" y2="10.5" stroke="#FFAC30"/>
    </symbol>
    <symbol id="details-info-item-burger-header__item-icon-phone" width="21" height="21" viewBox="0 0 21 21" fill="none" xmlns="http://www.w3.org/2000/svg">
        <path d="M11.685 14.4698L11.685 14.4699C11.7615 14.5145 11.8303 14.557 11.8971 14.5981C12.0047 14.6644 12.107 14.7275 12.2276 14.7913C12.3983 14.8815 12.5073 14.9159 12.5647 14.9228C12.5732 14.9187 12.5871 14.9115 12.6065 14.899C12.6667 14.8604 12.7467 14.794 12.8476 14.6926C13.0411 14.4982 13.2524 14.237 13.4893 13.9442C13.5018 13.9287 13.5144 13.9131 13.5271 13.8975C13.7684 13.5994 14.0366 13.2705 14.3018 13.0172C14.4353 12.8896 14.5828 12.7668 14.7403 12.6737C14.8957 12.5819 15.0929 12.5 15.317 12.5C15.6737 12.5 15.9869 12.6679 16.204 12.8043C16.3173 12.8755 16.4262 12.9527 16.519 13.0184L16.5233 13.0215C16.6205 13.0904 16.6976 13.1449 16.7671 13.1879C17.26 13.4782 17.7596 13.7541 18.2661 14.0339C18.52 14.1741 18.7757 14.3153 19.0331 14.4597C19.0525 14.4694 19.0755 14.4806 19.1012 14.4931C19.2345 14.5582 19.4424 14.6598 19.6306 14.7727C19.7477 14.843 19.8753 14.928 19.9859 15.0251C20.0831 15.1105 20.2158 15.2464 20.284 15.4326C20.3582 15.6167 20.3575 15.7926 20.3572 15.8782C20.3572 15.8834 20.3571 15.8883 20.3571 15.8929C20.3571 16.1889 20.2942 16.5859 20.2127 16.9484C20.1314 17.3102 20.0195 17.6905 19.8994 17.9565C19.7114 18.3916 19.3821 18.724 19.0519 18.98C18.7197 19.2375 18.3498 19.4451 18.0509 19.6112L18.0464 19.6136L18.0464 19.6136C17.2014 20.0719 16.3162 20.3571 15.317 20.3571C14.1602 20.3571 13.0922 19.9523 12.1302 19.5875C11.9627 19.524 11.7985 19.4618 11.6376 19.4031C10.7954 19.0993 9.97298 18.7237 9.20154 18.2468C9.20148 18.2468 9.20143 18.2468 9.20138 18.2467L9.46429 17.8214L11.685 14.4698ZM11.685 14.4698L11.6757 14.4646M11.685 14.4698L11.6757 14.4646M11.6757 14.4646C9.31993 13.1573 7.69984 11.5372 6.39255 9.18149L6.39265 9.18143M11.6757 14.4646L6.39265 9.18143M6.39265 9.18143L6.38725 9.17217M6.39265 9.18143L6.38725 9.17217M6.38725 9.17217C6.3426 9.09564 6.30018 9.0268 6.25901 8.96001C6.19271 8.85242 6.12967 8.75013 6.06587 8.6295C5.97562 8.45889 5.9412 8.34989 5.93436 8.29249C5.9384 8.2839 5.94566 8.27009 5.95814 8.25063C5.9967 8.19046 6.06317 8.11047 6.16454 8.00957C6.35892 7.81609 6.62012 7.60476 6.91292 7.36787C6.92841 7.35534 6.94399 7.34273 6.95966 7.33005C7.25775 7.08878 7.58667 6.82055 7.83995 6.55538C7.96754 6.4218 8.09036 6.27439 8.18346 6.1168C8.27524 5.96147 8.35714 5.76429 8.35714 5.54018C8.35714 5.18345 8.18926 4.87028 8.05287 4.65314C7.9817 4.53983 7.9045 4.43094 7.83872 4.33816L7.83562 4.3338C7.76672 4.23661 7.7123 4.15952 7.66927 4.09001C7.37896 3.59717 7.10305 3.0976 6.8233 2.59106C6.68307 2.33716 6.54188 2.08151 6.39742 1.82408C6.38776 1.80461 6.37656 1.78168 6.36401 1.75598C6.2989 1.62268 6.19734 1.41473 6.08444 1.22657C6.01414 1.1094 5.92916 0.981882 5.832 0.871215C5.74667 0.774035 5.61072 0.641338 5.42448 0.573124C5.24039 0.498984 5.06455 0.499641 4.97893 0.499962C4.97371 0.499982 4.96882 0.5 4.96429 0.5C4.66828 0.5 4.27124 0.562911 3.90871 0.644437C3.54697 0.725787 3.16661 0.83764 2.90067 0.957779C2.46555 1.14569 2.13315 1.47507 1.87717 1.80525C1.61965 2.13741 1.41201 2.50738 1.24596 2.80629L1.24593 2.80627M6.38725 9.17217L1.24593 2.80627M1.24593 2.80627L1.24352 2.81073M1.24593 2.80627L1.24352 2.81073M1.24352 2.81073C0.785212 3.65573 0.5 4.54095 0.5 5.54018M1.24352 2.81073L0.5 5.54018M0.5 5.54018C0.5 6.69698 0.904876 7.76491 1.26962 8.72697M0.5 5.54018L1.26962 8.72697M1.26962 8.72697C1.3331 8.89441 1.39536 9.05864 1.45406 9.21957M1.26962 8.72697L1.45406 9.21957M1.45406 9.21957C1.75788 10.0618 2.13345 10.8842 2.61032 11.6556L1.45406 9.21957Z" stroke="#FFAC30"/>
    </symbol>
    <symbol id="nav-item-burger-header__link-arrow" fill="none" xmlns="http://www.w3.org/2000/svg">
        <line x1="-4.37114e-08" y1="11.5" x2="115" y2="11.5" stroke="#FFAC30"/>
        <path d="M119 1L135 11.5L119 22" stroke="#FFAC30"/>
    </symbol>
        <symbol id="label-items-left-panel__label-facebook" xmlns="http://www.w3.org/2000/svg">
        <path d="M10.6484 11.75H7.71875V20.5H3.8125V11.75H0.648438V8.11719H3.8125V5.38281C3.8125 4.34115 4.00781 3.45573 4.39844 2.72656C4.78906 1.9974 5.33594 1.45052 6.03906 1.08594C6.76823 0.695312 7.60156 0.5 8.53906 0.5C8.95573 0.5 9.39844 0.526042 9.86719 0.578125C10.3359 0.604167 10.7005 0.643229 10.9609 0.695312L11.3516 0.734375V3.82031H9.78906C9.0599 3.82031 8.52604 4.01562 8.1875 4.40625C7.875 4.77083 7.71875 5.22656 7.71875 5.77344V8.11719H11.1953L10.6484 11.75Z"/>
    </symbol>
    <symbol id="label-items-left-panel__label-instagram" xmlns="http://www.w3.org/2000/svg">
        <path d="M5.83594 6.33594C6.72135 5.45052 7.78906 5.00781 9.03906 5.00781C10.2891 5.00781 11.3438 5.45052 12.2031 6.33594C13.0885 7.19531 13.5312 8.25 13.5312 9.5C13.5312 10.75 13.0885 11.8177 12.2031 12.7031C11.3438 13.5625 10.2891 13.9922 9.03906 13.9922C7.78906 13.9922 6.72135 13.5625 5.83594 12.7031C4.97656 11.8177 4.54688 10.75 4.54688 9.5C4.54688 8.25 4.97656 7.19531 5.83594 6.33594ZM6.96875 11.5703C7.54167 12.1432 8.23177 12.4297 9.03906 12.4297C9.84635 12.4297 10.5365 12.1432 11.1094 11.5703C11.6823 10.9974 11.9688 10.3073 11.9688 9.5C11.9688 8.69271 11.6823 8.0026 11.1094 7.42969C10.5365 6.85677 9.84635 6.57031 9.03906 6.57031C8.23177 6.57031 7.54167 6.85677 6.96875 7.42969C6.39583 8.0026 6.10938 8.69271 6.10938 9.5C6.10938 10.3073 6.39583 10.9974 6.96875 11.5703ZM14.4297 4.10938C14.638 4.29167 14.7422 4.52604 14.7422 4.8125C14.7422 5.09896 14.638 5.34635 14.4297 5.55469C14.2474 5.76302 14.013 5.86719 13.7266 5.86719C13.4401 5.86719 13.1927 5.76302 12.9844 5.55469C12.776 5.34635 12.6719 5.09896 12.6719 4.8125C12.6719 4.52604 12.776 4.29167 12.9844 4.10938C13.1927 3.90104 13.4401 3.79688 13.7266 3.79688C14.013 3.79688 14.2474 3.90104 14.4297 4.10938ZM17.75 5.90625C17.776 6.60938 17.7891 7.80729 17.7891 9.5C17.7891 11.1927 17.776 12.3906 17.75 13.0938C17.6719 14.6823 17.1901 15.9193 16.3047 16.8047C15.4453 17.6641 14.2214 18.1198 12.6328 18.1719C11.9297 18.224 10.7318 18.25 9.03906 18.25C7.34635 18.25 6.14844 18.224 5.44531 18.1719C3.85677 18.0938 2.63281 17.625 1.77344 16.7656C1.4349 16.4531 1.16146 16.0885 0.953125 15.6719C0.744792 15.2552 0.588542 14.8516 0.484375 14.4609C0.40625 14.0703 0.367188 13.6146 0.367188 13.0938C0.315104 12.3906 0.289062 11.1927 0.289062 9.5C0.289062 7.80729 0.315104 6.59635 0.367188 5.86719C0.445312 4.30469 0.914062 3.09375 1.77344 2.23438C2.63281 1.34896 3.85677 0.867188 5.44531 0.789062C6.14844 0.763021 7.34635 0.75 9.03906 0.75C10.7318 0.75 11.9297 0.763021 12.6328 0.789062C14.2214 0.867188 15.4453 1.34896 16.3047 2.23438C17.1901 3.09375 17.6719 4.31771 17.75 5.90625ZM15.875 14.6562C15.9531 14.4479 16.0182 14.1875 16.0703 13.875C16.1224 13.5365 16.1615 13.1458 16.1875 12.7031C16.2135 12.2344 16.2266 11.8568 16.2266 11.5703C16.2266 11.2839 16.2266 10.8802 16.2266 10.3594C16.2266 9.83854 16.2266 9.55208 16.2266 9.5C16.2266 9.42188 16.2266 9.13542 16.2266 8.64062C16.2266 8.11979 16.2266 7.71615 16.2266 7.42969C16.2266 7.14323 16.2135 6.77865 16.1875 6.33594C16.1615 5.86719 16.1224 5.47656 16.0703 5.16406C16.0182 4.82552 15.9531 4.55208 15.875 4.34375C15.5625 3.53646 15.0026 2.97656 14.1953 2.66406C13.987 2.58594 13.7135 2.52083 13.375 2.46875C13.0625 2.41667 12.6719 2.3776 12.2031 2.35156C11.7604 2.32552 11.3958 2.3125 11.1094 2.3125C10.849 2.3125 10.4453 2.3125 9.89844 2.3125C9.3776 2.3125 9.09115 2.3125 9.03906 2.3125C8.98698 2.3125 8.70052 2.3125 8.17969 2.3125C7.65885 2.3125 7.25521 2.3125 6.96875 2.3125C6.68229 2.3125 6.30469 2.32552 5.83594 2.35156C5.39323 2.3776 5.0026 2.41667 4.66406 2.46875C4.35156 2.52083 4.09115 2.58594 3.88281 2.66406C3.07552 2.97656 2.51562 3.53646 2.20312 4.34375C2.125 4.55208 2.0599 4.82552 2.00781 5.16406C1.95573 5.47656 1.91667 5.86719 1.89062 6.33594C1.86458 6.77865 1.85156 7.14323 1.85156 7.42969C1.85156 7.6901 1.85156 8.09375 1.85156 8.64062C1.85156 9.16146 1.85156 9.44792 1.85156 9.5C1.85156 9.60417 1.85156 9.85156 1.85156 10.2422C1.85156 10.6068 1.85156 10.9193 1.85156 11.1797C1.85156 11.4141 1.85156 11.7266 1.85156 12.1172C1.8776 12.5078 1.90365 12.8464 1.92969 13.1328C1.95573 13.3932 1.99479 13.6667 2.04688 13.9531C2.09896 14.2396 2.15104 14.474 2.20312 14.6562C2.54167 15.4635 3.10156 16.0234 3.88281 16.3359C4.09115 16.4141 4.35156 16.4792 4.66406 16.5312C5.0026 16.5833 5.39323 16.6224 5.83594 16.6484C6.30469 16.6745 6.66927 16.6875 6.92969 16.6875C7.21615 16.6875 7.61979 16.6875 8.14062 16.6875C8.6875 16.6875 8.98698 16.6875 9.03906 16.6875C9.11719 16.6875 9.40365 16.6875 9.89844 16.6875C10.4193 16.6875 10.8229 16.6875 11.1094 16.6875C11.3958 16.6875 11.7604 16.6745 12.2031 16.6484C12.6719 16.6224 13.0625 16.5833 13.375 16.5312C13.7135 16.4792 13.987 16.4141 14.1953 16.3359C15.0026 15.9974 15.5625 15.4375 15.875 14.6562Z"/>
    </symbol>
    <symbol id="label-items-left-panel__label-telegram"  xmlns="http://www.w3.org/2000/svg">
        <path d="M17.75 1.36718L15.0937 13.7891C14.8854 14.6745 14.4036 14.9088 13.6484 14.4922L9.62497 11.5234L7.67185 13.3984C7.41143 13.6588 7.13799 13.7891 6.85154 13.7891L7.16404 9.68749L14.625 2.96874C14.8073 2.78645 14.8073 2.68228 14.625 2.65624C14.4687 2.60416 14.2995 2.64322 14.1172 2.77343L4.89841 8.59374L0.914035 7.34374C0.471327 7.21353 0.262994 7.01822 0.289035 6.7578C0.315077 6.49739 0.588515 6.27603 1.10935 6.09374L16.6172 0.0781163C17.0078 -0.0520921 17.3203 -8.71718e-06 17.5547 0.234366C17.789 0.4427 17.8541 0.820304 17.75 1.36718Z" />
    </symbol>
    <symbol id="label-items-left-panel__label-youtube"   xmlns="http://www.w3.org/2000/svg">
        <path d="M21.2344 2.34375C21.3125 2.65625 21.3776 3.04688 21.4297 3.51562C21.5078 3.98438 21.5599 4.45312 21.5859 4.92188C21.612 5.36458 21.625 5.78125 21.625 6.17188C21.651 6.5625 21.6641 6.88802 21.6641 7.14844V7.5C21.6641 9.84375 21.5208 11.5755 21.2344 12.6953C21.1042 13.138 20.8698 13.5286 20.5312 13.8672C20.1927 14.2057 19.7891 14.4401 19.3203 14.5703C18.8255 14.7005 17.888 14.8047 16.5078 14.8828C15.1276 14.9349 13.8646 14.974 12.7188 15H11C6.54688 15 3.77344 14.8568 2.67969 14.5703C1.66406 14.2839 1.02604 13.6589 0.765625 12.6953C0.635417 12.2005 0.53125 11.5234 0.453125 10.6641C0.401042 9.77865 0.361979 9.03646 0.335938 8.4375V7.5C0.335938 5.18229 0.479167 3.46354 0.765625 2.34375C0.895833 1.875 1.13021 1.47135 1.46875 1.13281C1.80729 0.794271 2.21094 0.559896 2.67969 0.429688C3.17448 0.299479 4.11198 0.208333 5.49219 0.15625C6.8724 0.078125 8.13542 0.0260417 9.28125 0H11C15.4531 0 18.2266 0.143229 19.3203 0.429688C19.7891 0.559896 20.1927 0.794271 20.5312 1.13281C20.8698 1.47135 21.1042 1.875 21.2344 2.34375ZM8.8125 10.7031L14.3984 7.5L8.8125 4.33594V10.7031Z" />
    </symbol>
    <symbol id="contact-form__button-arrow" fill="none" xmlns="http://www.w3.org/2000/svg">
        <path d="M104 1L120 11.5L104 22" stroke="#FFAC30"/>
        <line x1="-4.37114e-08" y1="11.5" x2="100" y2="11.5" stroke="#FFAC30"/>
    </symbol>
    <symbol id="steps-walter__icon_1" viewBox="0 0 77 94" fill="none" xmlns="http://www.w3.org/2000/svg">
        <path d="M37 1H7C3.68629 1 1 3.68629 1 7V65C1 68.3137 3.68629 71 7 71H45C48.3137 71 51 68.3137 51 65V23" stroke="#FFAC30" stroke-linejoin="round"/>
        <path d="M26 71L26 87C26 90.3137 28.6863 93 32 93H70C73.3137 93 76 90.3137 76 87V46" stroke="#FFAC30" stroke-linejoin="round"/>
        <path d="M37 15H52L37 1V15Z" fill="#FFAC30" stroke="#FFAC30" stroke-linejoin="round"/>
        <path d="M61 37H76L61 23V37Z" fill="#FFAC30" stroke="#FFAC30" stroke-linejoin="round"/>
        <line x1="61" y1="23.5" x2="51" y2="23.5" stroke="#FFAC30"/>
        <line x1="41" y1="59.5" x2="11" y2="59.5" stroke="#FFAC30"/>
        <line x1="41" y1="51.5" x2="11" y2="51.5" stroke="#FFAC30"/>
        <line x1="41" y1="42.5" x2="11" y2="42.5" stroke="#FFAC30"/>
    </symbol>
    <symbol id="steps-walter__icon_2" viewBox="0 0 101 101" fill="none" xmlns="http://www.w3.org/2000/svg">
        <path d="M85.9322 71.7901L21.2132 7.07107C17.3079 3.16582 10.9763 3.16582 7.07102 7.07107V7.07107C3.16578 10.9763 3.16577 17.308 7.07102 21.2132L71.7901 85.9323" stroke="#FFAC30"/>
        <path d="M85.8225 71.6323L93.0621 93.062L71.6324 85.8225" stroke="#FFAC30"/>
        <path d="M7.07102 7.07107C10.9763 3.16583 17.3079 3.16583 21.2132 7.07107L26.7481 12.606L12.606 26.7481L7.07102 21.2132C3.16578 17.308 3.16578 10.9763 7.07102 7.07107Z" fill="#FFAC30"/>
        <line x1="16.6464" y1="30.6464" x2="30.6464" y2="16.6464" stroke="#FFAC30"/>
        <line x1="24.7071" y1="24" x2="30" y2="29.2929" stroke="#FFAC30" stroke-linecap="round"/>
        <line x1="34.7071" y1="34" x2="79" y2="78.2929" stroke="#FFAC30" stroke-linecap="round"/>
        <path d="M48.5 34.6758L77.7623 5.41348C80.1055 3.07033 83.9044 3.07034 86.2476 5.41348L91.9044 11.0703C94.2476 13.4135 94.2476 17.2125 91.9044 19.5556L62.9601 48.5M48.5 62.9601L19.3848 92.0753C17.0416 94.4184 13.2426 94.4184 10.8995 92.0753L5.24264 86.4184C2.8995 84.0753 2.8995 80.2763 5.24264 77.9331L34.6758 48.5" stroke="#FFAC30"/>
        <line x1="72.435" y1="37.4558" x2="64.6568" y2="29.6776" stroke="#FFAC30" stroke-linecap="round" stroke-linejoin="round"/>
        <line x1="89.4057" y1="20.4854" x2="81.6275" y2="12.7072" stroke="#FFAC30" stroke-linecap="round" stroke-linejoin="round"/>
        <line x1="78.092" y1="31.7991" x2="75.2635" y2="28.9706" stroke="#FFAC30" stroke-linecap="round" stroke-linejoin="round"/>
        <line x1="66.7782" y1="43.1128" x2="63.9498" y2="40.2844" stroke="#FFAC30" stroke-linecap="round" stroke-linejoin="round"/>
        <line x1="83.7487" y1="26.1421" x2="80.9203" y2="23.3137" stroke="#FFAC30" stroke-linecap="round" stroke-linejoin="round"/>
        <line x1="37.4349" y1="73.1924" x2="29.6567" y2="65.4142" stroke="#FFAC30" stroke-linecap="round" stroke-linejoin="round"/>
        <line x1="19.7781" y1="89.9292" x2="11.9999" y2="82.151" stroke="#FFAC30" stroke-linecap="round" stroke-linejoin="round"/>
        <line x1="43.0918" y1="67.5356" x2="40.2634" y2="64.7072" stroke="#FFAC30" stroke-linecap="round" stroke-linejoin="round"/>
        <line x1="25.4351" y1="84.2725" x2="22.6067" y2="81.444" stroke="#FFAC30" stroke-linecap="round" stroke-linejoin="round"/>
        <line x1="31.7781" y1="78.8494" x2="28.9497" y2="76.0209" stroke="#FFAC30" stroke-linecap="round" stroke-linejoin="round"/>
    </symbol>
    <symbol id="steps-walter__icon_3" viewBox="0 0 80 79" fill="none" xmlns="http://www.w3.org/2000/svg">
        <path d="M9.5 51.5078V51.5078C4.34077 51.5078 0.241189 55.8492 0.527371 61.0005V61.0005C0.792329 65.7697 4.73728 69.5078 9.51388 69.5078H47.5" stroke="#FFAC30"/>
        <path d="M0.5 60.5078L0.5 14.0078C0.5 9.03725 4.52944 5.00781 9.5 5.00781V5.00781V52.0078" stroke="#FFAC30"/>
        <line x1="9" y1="17.5078" x2="46" y2="17.5078" stroke="#FFAC30"/>
        <line x1="61" y1="17.5078" x2="72" y2="17.5078" stroke="#FFAC30"/>
        <line x1="71.5" y1="46.0078" x2="71.5" y2="18.0078" stroke="#FFAC30"/>
        <path d="M36.1698 42.1803L67.3366 11.0135C69.3642 8.98593 69.3642 5.69864 67.3366 3.6711V3.6711C65.3091 1.64356 62.0218 1.64356 59.9943 3.6711L28.8274 34.8379" stroke="#FFAC30"/>
        <path d="M28.696 35.4109L35.5881 42.3031L25.4514 45.5476L28.696 35.4109Z" fill="#FFAC30" stroke="#FFAC30"/>
        <path d="M67.216 3.67891C69.2436 5.70645 69.2436 8.99374 67.216 11.0213L64.3424 13.8949L57 6.55256L59.8736 3.67891C61.9012 1.65137 65.1885 1.65137 67.216 3.67891Z" fill="#FFAC30"/>
        <line x1="55.3536" y1="8.65426" x2="62.3536" y2="15.6543" stroke="#FFAC30"/>
        <line x1="29.3536" y1="34.6543" x2="36.3536" y2="41.6543" stroke="#FFAC30"/>
        <line x1="20.5" y1="46.5078" x2="52.5" y2="46.5078" stroke="#FFAC30" stroke-linecap="round"/>
        <path d="M56 61.0078L79 38.0078V78.0078H39L52 65.0078" stroke="#FFAC30" stroke-linecap="round"/>
        <path d="M59.2071 69.5078L69.5 59.2149V69.5078H59.2071Z" stroke="#FFAC30"/>
        <line x1="74.5" y1="51.5078" x2="78.5" y2="51.5078" stroke="#FFAC30" stroke-linecap="round"/>
        <line x1="74.5" y1="58.5078" x2="78.5" y2="58.5078" stroke="#FFAC30" stroke-linecap="round"/>
        <line x1="74.5" y1="63.5078" x2="78.5" y2="63.5078" stroke="#FFAC30" stroke-linecap="round"/>
        <line x1="74.5" y1="69.5078" x2="78.5" y2="69.5078" stroke="#FFAC30" stroke-linecap="round"/>
    </symbol>
    <symbol id="steps-walter__icon_4" viewBox="0 0 94 92" fill="none" xmlns="http://www.w3.org/2000/svg">
        <path d="M55.0266 39L78.0945 56.7197C80.5496 58.6057 81.0709 62.0969 79.2737 64.6177V64.6177C77.4273 67.2077 73.829 67.8066 71.2432 65.9544L64.6347 61.2209" stroke="#FFAC30" stroke-linecap="round"/>
        <path d="M55.0268 39C50.5268 35.5 46.5269 38 40.5268 38C36.0268 38 32.0269 35.5 31.5269 31.5C31.1518 28.5 43.0268 27.4999 48.0268 26.9999C53.0269 26.5 57.0269 29 60.5269 30C63.3269 30.8 68.5268 28.6667 71.0268 27.5" stroke="#FFAC30"/>
        <path d="M66.3933 62.4351L70.9468 65.7949C73.1196 67.398 73.6051 70.4475 72.0377 72.6461V72.6461C70.4669 74.8495 67.4171 75.3816 65.193 73.8403L58.905 69.4828" stroke="#FFAC30" stroke-linecap="round"/>
        <path d="M59.0265 69.5002L64.6365 73.5519C66.4989 74.897 66.8963 77.5079 65.5183 79.3461V79.3461C64.1469 81.1755 61.5459 81.5332 59.7316 80.1419L53.0266 75.0002" stroke="#FFAC30" stroke-linecap="round"/>
        <path d="M53.0267 75.0002L57.6311 78.4535C59.5066 79.8601 59.887 82.5206 58.4809 84.3964V84.3964C57.1114 86.2233 54.5423 86.6399 52.6657 85.3394L47.5268 81.7783" stroke="#FFAC30" stroke-linecap="round"/>
        <rect x="11.8654" y="60.6106" width="19.6318" height="9.93922" rx="4.96961" transform="rotate(-39.3518 11.8654 60.6106)" stroke="#FFAC30"/>
        <rect x="24.839" y="75.8645" width="19.0117" height="10.0037" rx="5.00185" transform="rotate(-39.3518 24.839 75.8645)" stroke="#FFAC30"/>
        <rect x="31.1342" y="83.7659" width="15.3281" height="9.42482" rx="4.71241" transform="rotate(-39.3518 31.1342 83.7659)" stroke="#FFAC30"/>
        <rect x="18.2304" y="68.3635" width="24.6156" height="10.0037" rx="5.00185" transform="rotate(-39.3518 18.2304 68.3635)" stroke="#FFAC30"/>
        <rect y="53.4248" width="38.5581" height="6.64481" rx="3.3224" transform="rotate(-60 0 53.4248)" fill="#FFAC30"/>
        <rect width="38.5581" height="7.6328" rx="3.8164" transform="matrix(-0.5 -0.866025 -0.866025 0.5 93.416 52.9307)" fill="#FFAC30"/>
        <path d="M8.02673 52C10.0267 52 12.5267 52.5 16.0267 57" stroke="#FFAC30"/>
        <path d="M84.5266 52C82.7766 52 80.5891 52.4 77.5266 56" stroke="#FFAC30"/>
        <line x1="21.6704" y1="27.5211" x2="31.6704" y2="30.5211" stroke="#FFAC30"/>
        <line x1="46.0267" y1="11.5" x2="46.0267" y2="0.5" stroke="#FFAC30" stroke-linecap="round"/>
        <line x1="32.8365" y1="16.8466" x2="26.3733" y2="6.69027" stroke="#FFAC30" stroke-linecap="round"/>
        <line x1="0.5" y1="-0.5" x2="12.5384" y2="-0.5" transform="matrix(0.536875 -0.843661 -0.843661 -0.536875 59.5266 17)" stroke="#FFAC30" stroke-linecap="round"/>
    </symbol>
    <symbol id="steps-walter__icon_5" viewBox="0 0 76 87" fill="none" xmlns="http://www.w3.org/2000/svg">
        <path d="M9.24756 27H6.74756C3.43385 27 0.747559 24.3137 0.747559 21V7C0.747559 3.68629 3.43385 1 6.74756 1H60.7476C64.0613 1 66.7476 3.68629 66.7476 7V21C66.7476 24.3137 64.0613 27 60.7476 27H34.2476" stroke="#FFAC30"/>
        <rect x="46.2476" y="49.5" width="37" height="18" rx="5.5" transform="rotate(90 46.2476 49.5)" stroke="#FFAC30"/>
        <path d="M9.74756 1.5V43C9.74756 46.866 12.8816 50 16.7476 50V50C20.6136 50 23.7476 46.866 23.7476 43V23.5" stroke="#FFAC30"/>
        <path d="M33.7476 1.5V34C33.7476 36.7614 31.509 39 28.7476 39V39C25.9861 39 23.7476 36.7614 23.7476 34V20.9691" stroke="#FFAC30"/>
        <path d="M66.2476 14H74.7476C74.7476 17.3333 74.7476 24.9 74.7476 28.5C74.7476 33 72.2476 34 67.2476 35.5C62.2476 37 46.7476 41.5 43.2476 42.5C39.7476 43.5 37.2476 45 37.2476 49.5" stroke="#FFAC30"/>
        <rect x="27.7476" y="57" width="19" height="8" fill="#FFAC30"/>
    </symbol>
    <symbol id="steps-walter__icon_6" viewBox="0 0 77 86" fill="none" xmlns="http://www.w3.org/2000/svg">
        <path d="M7.74756 30.8926V77.3926C7.74756 80.7063 10.4338 83.3926 13.7476 83.3926H55.2476" stroke="#FFAC30" stroke-linecap="round"/>
        <path d="M0.747559 35.9937L37.7476 7.99365L75.5493 35.9937" stroke="#FFAC30" stroke-linecap="round" stroke-linejoin="round"/>
        <circle cx="37.2476" cy="50.8926" r="17" stroke="#FFAC30"/>
        <path fill-rule="evenodd" clip-rule="evenodd" d="M37.2476 62.3926C43.5988 62.3926 48.7476 57.2439 48.7476 50.8926C48.7476 44.5413 43.5988 39.3926 37.2476 39.3926C30.8963 39.3926 25.7476 44.5413 25.7476 50.8926C25.7476 57.2439 30.8963 62.3926 37.2476 62.3926ZM43.5909 47.2561C43.7916 47.0665 43.8007 46.75 43.6111 46.5493C43.4215 46.3485 43.105 46.3395 42.9042 46.5291L34.777 54.2048L31.5909 51.1957C31.3901 51.0061 31.0737 51.0152 30.8841 51.2159C30.6944 51.4167 30.7035 51.7331 30.9042 51.9228L34.777 55.5803L43.5909 47.2561Z" fill="#FFAC30"/>
        <path d="M52.1116 60.0997L67.9872 75.9753C69.5493 77.5374 69.5493 80.0701 67.9872 81.6322C66.4251 83.1943 63.8924 83.1943 62.3303 81.6322L46.4547 65.7565L52.1116 60.0997Z" stroke="#FFAC30"/>
        <line x1="67.2476" y1="29.8926" x2="67.2476" y2="67.8926" stroke="#FFAC30" stroke-linecap="round"/>
    </symbol>
    <symbol id="steps-walter__right-arrow" viewBox="0 0 24 31" fill="none" xmlns="http://www.w3.org/2000/svg">
        <path d="M1 1L23 15.5L1 30" stroke="white"/>
    </symbol>
    <symbol id="additional-services-popup__close-button-icon" viewBox="0 0 23 23" fill="none" xmlns="http://www.w3.org/2000/svg">
        <line y1="-1" x2="28.7683" y2="-1" transform="matrix(-0.720678 -0.69327 0.720678 -0.69327 22.7344 20.9443)" stroke="black" stroke-opacity="0.15" stroke-width="2"/>
        <line y1="-1" x2="28.7683" y2="-1" transform="matrix(0.720678 -0.69327 0.720678 0.69327 2 22.0001)" stroke="black" stroke-opacity="0.15" stroke-width="2"/>
    </symbol>
    <symbol id="renovation__link-arrow" viewBox="0 0 116 23" fill="none" xmlns="http://www.w3.org/2000/svg">
        <line x1="4.37114e-08" y1="11.5" x2="95" y2="11.5" stroke="white" stroke-opacity="0.5"/>
        <path d="M99 1L115 11.5L99 22" stroke="white" stroke-opacity="0.5"/>
    </symbol>
    <symbol id="renovation-styles__style-button-arrow-services"  viewBox="0 0 78 23" fill="none" xmlns="http://www.w3.org/2000/svg">
        <line x1="-4.37114e-08" y1="11.5" x2="57" y2="11.5" stroke="white" stroke-opacity="0.5"/>
        <path d="M61 1L77 11.5L61 22" stroke="white" stroke-opacity="0.5"/>
    </symbol>
    <symbol id="renovation-styles__style-button-arrow-gallery"  viewBox="0 0 136 23" fill="none" xmlns="http://www.w3.org/2000/svg">
        <line x1="-4.37114e-08" y1="11.5" x2="115" y2="11.5" stroke="#FFAC30"/>
        <path d="M119 1L135 11.5L119 22" stroke="#FFAC30"/>
    </symbol>
    
</svg>